<mxfile host="app.diagrams.net" modified="2024-08-27T07:36:34.094Z" agent="Mozilla/5.0 (Windows NT 10.0; Win64; x64) AppleWebKit/537.36 (KHTML, like Gecko) Chrome/128.0.0.0 Safari/537.36" version="24.7.1" etag="vYHAW1bVkKRVC5Ryo3z7" type="github">
  <diagram name="第 1 页" id="6ez0d3IsDSHuJ3F5sfxZ">
    <mxGraphModel>
      <root>
        <mxCell id="0" />
        <mxCell id="1" parent="0" />
      </root>
    </mxGraphModel>
  </diagram>
</mxfile>
